<svg xmlns="http://www.w3.org/2000/svg" viewBox="0 0 633.79 292.52"><defs><style>.cls-1{fill:#ab8a9e;}.cls-2{fill:#ffd147;}.cls-3{fill:#7a79a6;}.cls-4{fill:#825b73;}.cls-5{fill:#76a199;}.cls-6{fill:#bbfff2;}</style></defs><title>Element 1</title><g id="Ebene_2" data-name="Ebene 2"><g id="Ebene_3" data-name="Ebene 3"><path class="cls-1" d="M235.54,79.2l132.59,73,111-71,3.41,199h-239s46.6-53,46.6-92-43.26-98-48.95-102S235.54,79.2,235.54,79.2Z"/><path d="M230.49,87.83l116.26,64,16.33,9a10,10,0,0,0,10.09,0l97-62,14-9-15-8.63,1.15,67.09,1.84,107.1.42,24.81,10-10h-239l7.07,17.07c19.12-21.79,36.87-47.86,45.6-75.66,11.68-37.21-8.12-75.25-27.93-106-4.54-7-9.35-13.88-14.56-20.43A52.34,52.34,0,0,0,249.26,80c-.94-.91-2-1.58-3-2.45-.57-.49-2.14-1.18-1.17-1-.6-1.13-.53-.9.22.66.2,2.13.29,2.81.25,2-.56-12.82-20.57-12.89-20,0a17.39,17.39,0,0,0,5.08,11.06A29.57,29.57,0,0,0,233.71,93l1,.78c2,1.49,1.88,1.42-.27-.23,0,0,1.39,1.36,1.46,1.45,1.46,1.54,2.78,3.23,4.09,4.89-1.56-2,.86,1.15,1.3,1.74q1.62,2.19,3.2,4.43a265.19,265.19,0,0,1,26.2,45.71,127.15,127.15,0,0,1,8.11,24.56,55.62,55.62,0,0,1,.28,21.74c-3.71,17.66-13,33.81-22.87,48.75q-3.69,5.58-7.65,11c-1.15,1.58-2.32,3.14-3.5,4.7-.15.21-2,2.58-.57.77L243,265.16c-2.13,2.7-4.28,5.38-6.55,8-5.56,6.34-2,17.07,7.07,17.07h239a10.13,10.13,0,0,0,10-10l-1.15-67.09L489.55,106l-.42-24.81c-.13-7.31-8.5-12.83-15.05-8.64l-97,62-14,9h10.09l-116.25-64-16.33-9C229.31,64.35,219.2,81.62,230.49,87.83Z"/><path class="cls-2" d="M10.18,11.1l4.93,267.07a1,1,0,0,0,1,1l204.94,2a1,1,0,0,0,.86-1.65L124.81,143c-1.79-2.51-3.69-5-5.69-7.29L12,10.4A1,1,0,0,0,10.18,11.1Z"/><path d="M.18,11.1,1.26,69.8,3.42,186.46,5,271.94c0,2,0,4.05.11,6.06.49,7.34,6,11,12.74,11.22,10.1.28,20.22.19,30.32.29l114.08,1.09,45.19.44,11.63.11c.65,0,1.31.05,2,0,8.32-.45,13.87-9.14,9.55-16.7-4.14-7.24-9.91-13.94-14.74-20.73l-32.09-45.11c-16.67-23.43-33.26-46.93-50-70.31-5.4-7.54-11.6-14.47-17.63-21.51L82.94,78,20.79,5.32c-.53-.62-1-1.32-1.62-1.89a12.82,12.82,0,0,0-5.26-3C7.54-1.36,2.8,3,.54,8.44c-2.09,5,2.25,11,7,12.3,5.77,1.59,10.21-2,12.3-7l.33-.78-7,7,.74-.28-7.7-1c-1.71-.83-1.49-1.59-.54-.35C6.39,19.26,7.22,20.14,8,21l8.26,9.66L42.52,61.42,100.32,129C127,160.27,149.57,195,173.37,228.42l27.68,38.91L210,279.89c.82,1.15,1.6,2.34,2.47,3.46,1,1.29.65,2,0-.43l1-7.71-.33.64,6-4.59c2-.75,2.41-.05.54-.1-1.35,0-2.7,0-4,0L200.78,271,152,270.51,41.7,269.45l-18.62-.18-5,0c-2.16,0-2-.82,0,0l6,4.6-.31-.72,1.37,5-1.68-90.76L20.79,44,20.18,11.1C19.94-1.76-.06-1.8.18,11.1Z"/><polygon class="cls-3" points="474.13 49.2 594.13 21.2 534.79 141.2 622.79 279.2 619.13 279.2 485.13 281.2 474.13 49.2"/><polygon class="cls-3" points="474.13 49.2 594.13 21.2 534.79 141.2 622.79 279.2 619.13 279.2 485.13 281.2 474.13 49.2"/><path d="M476.78,58.84,581.72,34.36l15.06-3.52L585.49,16.15,528.68,131c-2.76,5.6-5.22,10.66-1.58,16.68,3.78,6.27,7.88,12.36,11.82,18.53l44,68.94,31.29,49.06,8.63-15.05c-40,0-80,1.14-120,1.74l-17.68.26,10,10L491.42,203,485.5,78.1l-1.37-28.9c-.61-12.81-20.61-12.89-20,0l3.71,78.23,5.92,124.87,1.37,28.9c.25,5.34,4.37,10.08,10,10l120.31-1.8c5.79-.08,11.57-.2,17.35-.2,7.36,0,12.77-8.57,8.64-15.05l-77.14-121-10.86-17v10.1L595.48,41l7.28-14.73c3.88-7.84-2.5-16.75-11.29-14.69L486.54,36l-15.07,3.52C458.94,42.48,464.24,61.77,476.78,58.84Z"/><polygon class="cls-4" points="257.13 101.2 472.13 222.2 473.13 270.2 267.13 272.2 257.13 101.2"/><path d="M15.13,292.2H549.41c24.52,0,49.16.72,73.67,0h1c12.87,0,12.89-20,0-20H89.84c-24.52,0-49.16-.72-73.67,0h-1c-12.87,0-12.89,20,0,20Z"/><path class="cls-5" d="M100.13,109.2c3.45-4.34,37.38-45.49,93-43,51.63,2.31,81,40.41,89,52,1.93,2.79,42.93,64.2,11,119-16.67,28.6-44.33,40.18-55,44-5,2-11,1-15-1C181.79,222.53,141.46,166.87,100.13,109.2Z"/><path d="M107.2,116.27a105.92,105.92,0,0,1,45.47-33.39,98.22,98.22,0,0,1,91.52,11,123.29,123.29,0,0,1,24.68,23.15c.33.4,2.36,3,1.44,1.78s.75,1,.94,1.26c.81,1.1,1.62,2.21,2.38,3.34,1.45,2.15,2.78,4.38,4.05,6.63a131.92,131.92,0,0,1,13.18,31.39c4.36,15.41,6,31.89,2.56,47.66a82.63,82.63,0,0,1-30.93,47.78A106.42,106.42,0,0,1,243.4,268.3l-2.1,1c-.24.11-2.46,1.05-1.16.51.89-.38-2,.8-2.63,1-3.08,1.17-6.11,2.22-9.34.76l3.59,3.59c-40.91-57.06-82.09-113.93-123-171-3.14-4.38-8.71-6.49-13.68-3.59-4.33,2.54-6.75,9.27-3.59,13.69q57.31,80,114.9,159.7c4.37,6.09,8.05,13.72,15.33,16.46a29.09,29.09,0,0,0,20.19,0,126,126,0,0,0,22.43-10.69c22.12-13.49,39.43-34.29,46.83-59.3,10.44-35.36.07-76.94-20.27-107.08C270,82.44,236.77,60.54,199.4,56.66c-39.52-4.09-81.55,14.43-106.34,45.47-3.37,4.21-4.12,10,0,14.14C96.55,119.76,103.81,120.51,107.2,116.27Z"/><path class="cls-6" d="M177.13,93.2c11.76-11.41,38.12.86,47,5,19.82,9.23,46.22,29.31,42,44-1.13,3.91-4.59,8-9,9-12.19,2.71-17.27-21.57-40-31-20.69-8.59-37.94,2.61-44-7C169.55,107.52,172.08,98.1,177.13,93.2Z"/></g></g></svg>