<svg xmlns="http://www.w3.org/2000/svg" viewBox="0 0 99 160"><defs><style>.cls-1{fill:#fff;}.cls-2{fill:#966f96;}</style></defs><title>maus</title><g id="Ebene_2" data-name="Ebene 2"><g id="Ebene_1-2" data-name="Ebene 1"><path class="cls-1" d="M20.63,156.5A17.14,17.14,0,0,1,3.5,139.37V37.52a34.06,34.06,0,0,1,34-34h24a34.06,34.06,0,0,1,34,34V139.37A17.14,17.14,0,0,1,78.37,156.5Z"/><path class="cls-2" d="M61.48,7A30.55,30.55,0,0,1,92,37.52V139.37A13.64,13.64,0,0,1,78.37,153H20.63A13.64,13.64,0,0,1,7,139.37V37.52A30.55,30.55,0,0,1,37.52,7h24m0-7h-24A37.63,37.63,0,0,0,0,37.52V139.37A20.69,20.69,0,0,0,20.63,160H78.37A20.69,20.69,0,0,0,99,139.37V37.52A37.63,37.63,0,0,0,61.48,0Z"/><ellipse class="cls-1" cx="49.5" cy="40" rx="10.25" ry="15"/><path class="cls-2" d="M49.5,27c4.47,0,8.25,6,8.25,13S54,53,49.5,53s-8.25-6-8.25-13S45,27,49.5,27m0-4c-6.77,0-12.25,7.61-12.25,17S42.73,57,49.5,57s12.25-7.61,12.25-17S56.27,23,49.5,23Z"/></g></g></svg>